# xmcd
#
# Track frame offsets: 
#        150
#        11415
#        22222
#        33605
#        46256
#        57571
#        69086
#        80155
#        89891
#        99873
#        107380
#        116676
#        128689
#        138919
#        150180
#        159971
#        169623
#        189320
#        199823
#        210670
#        221123
#        232553
#        243849
#        256272
#        266896
#        279047
#        288702
#        299695
#        308167
#        319082
#        329095
#
# Disc length: 4578 seconds
#
# Revision: 1
# Processed by: cddbd v1.5.2PL0 Copyright (c) Steve Scherf et al.
# Submitted via: ExactAudioCopyFreeDBPlugin 1.0
#
DISCID=bb11e01f
DTITLE=Various Artist - The History of New Orleans Rhythm and Blues, 19
DTITLE=55-1962
DYEAR=2014
DGENRE=Rhythm and Blues
TTITLE0=Dave Bartholomew - Monkey Speaks His Mind
TTITLE1=Little Richard - Lucille
TTITLE2=Bobby Charles - Why Can't You
TTITLE3=Lloyd Price - Just Because
TTITLE4=Roy Montrell - Ooh Wow
TTITLE5=Little Richard - The Girl Can't Help It
TTITLE6=The Supremes (Columbus Ohio  male vocal group) - Don't Leave M
TTITLE6=e Here to Cry
TTITLE7=Fats Domino - I'm Walkin'
TTITLE8=Huey "Piano" Smith and His Clowns - Free, Single and Disengaged
TTITLE9=Professor Longhair - Baby Let Me Hold Your Hand
TTITLE10=Roy Brown - Let the Four Winds Blow
TTITLE11=Jimmy Beasley - Rhumba Rock
TTITLE12=Roland Cook - I've Got a Girl
TTITLE13=Professor Longhair - Look What You're Doin' to Me
TTITLE14=Larry Williams - Oh Baby
TTITLE15=Tommy Ridgley - When I Meet My Girl
TTITLE16=Huey "Piano" Smith and His Clowns - Rockin' Pneumonia and The Boo
TTITLE16=gie Woogie Flu (Pts. 1 and 2)
TTITLE17=Paul Gayten - Nervous Boogie
TTITLE18=Larry Williams - Short Fat Fannie
TTITLE19=Little Richard - Keep a Knockin'
TTITLE20=Chris Kenner - Sick and Tired
TTITLE21=Clarence Garlow - Sound the Bell
TTITLE22=Larry Williams - Slow Down
TTITLE23=Little Richard - Directly from My Heart Oh, Oh
TTITLE24=Champion Jack Dupree - Dirty Woman
TTITLE25=Eddie Bo - Hey, Bo
TTITLE26=Paul Gayten - For You My Love
TTITLE27=Edgar Blanchard - Stepping High
TTITLE28=Bobby Mitchell - I'm Gonna Be a Wheel Someday
TTITLE29=The Sparks - Merry Merry Lou
TTITLE30=Paul Gayten - Driving Home (Pt. 1)
EXTD=
EXTT0=
EXTT1=
EXTT2=
EXTT3=
EXTT4=
EXTT5=
EXTT6=
EXTT7=
EXTT8=
EXTT9=
EXTT10=
EXTT11=
EXTT12=
EXTT13=
EXTT14=
EXTT15=
EXTT16=
EXTT17=
EXTT18=
EXTT19=
EXTT20=
EXTT21=
EXTT22=
EXTT23=
EXTT24=
EXTT25=
EXTT26=
EXTT27=
EXTT28=
EXTT29=
EXTT30=
PLAYORDER=
